<svg width="37" height="62" viewBox="0 0 37 62" fill="none" xmlns="http://www.w3.org/2000/svg">
<path d="M2.92105 62H34.0789C35.6894 62 37 60.6961 37 59.0938V2.90625C37 1.30394 35.6894 0 34.0789 0H2.92105C1.31058 0 0 1.30394 0 2.90625V59.0938C0 60.6961 1.31058 62 2.92105 62ZM1.94737 2.90625C1.94737 2.64932 2.04995 2.40292 2.23255 2.22124C2.41515 2.03956 2.66282 1.9375 2.92105 1.9375H34.0789C34.3372 1.9375 34.5848 2.03956 34.7674 2.22124C34.95 2.40292 35.0526 2.64932 35.0526 2.90625V59.0938C35.0526 59.3507 34.95 59.5971 34.7674 59.7788C34.5848 59.9604 34.3372 60.0625 34.0789 60.0625H2.92105C2.66282 60.0625 2.41515 59.9604 2.23255 59.7788C2.04995 59.5971 1.94737 59.3507 1.94737 59.0938V2.90625Z" fill="#DEE7F0"/>
<path d="M4.86846 52.3125H32.1316C32.3899 52.3125 32.6375 52.2104 32.8201 52.0288C33.0027 51.8471 33.1053 51.6007 33.1053 51.3438V10.6562C33.1053 10.3993 33.0027 10.1529 32.8201 9.97124C32.6375 9.78956 32.3899 9.6875 32.1316 9.6875H4.86846C4.61022 9.6875 4.36256 9.78956 4.17996 9.97124C3.99736 10.1529 3.89478 10.3993 3.89478 10.6562V51.3438C3.89478 51.6007 3.99736 51.8471 4.17996 52.0288C4.36256 52.2104 4.61022 52.3125 4.86846 52.3125ZM5.84214 11.625H31.1579V50.375H5.84214V11.625Z" fill="#DEE7F0"/>
<path d="M19.4737 58.125C20.5492 58.125 21.4211 57.2576 21.4211 56.1875C21.4211 55.1174 20.5492 54.25 19.4737 54.25C18.3982 54.25 17.5264 55.1174 17.5264 56.1875C17.5264 57.2576 18.3982 58.125 19.4737 58.125Z" fill="#DEE7F0"/>
<path d="M14.6053 7.75H22.3947C22.653 7.75 22.9006 7.64794 23.0832 7.46626C23.2658 7.28458 23.3684 7.03818 23.3684 6.78125C23.3684 6.52432 23.2658 6.27792 23.0832 6.09624C22.9006 5.91456 22.653 5.8125 22.3947 5.8125H14.6053C14.347 5.8125 14.0994 5.91456 13.9168 6.09624C13.7342 6.27792 13.6316 6.52432 13.6316 6.78125C13.6316 7.03818 13.7342 7.28458 13.9168 7.46626C14.0994 7.64794 14.347 7.75 14.6053 7.75Z" fill="#DEE7F0"/>
</svg>
