<svg width="64" height="18" viewBox="0 0 64 18" fill="none" xmlns="http://www.w3.org/2000/svg">
<path d="M12.337 7.68069H6.9545C6.81563 7.68069 6.70288 7.79763 6.70288 7.9415V10.6678C6.70288 10.8117 6.81562 10.9287 6.95437 10.9287H9.05425V14.316C9.05425 14.316 8.58275 14.4825 7.27925 14.4825C5.74137 14.4825 3.593 13.9003 3.593 9.00635C3.593 4.11138 5.83012 3.4674 7.93025 3.4674C9.74813 3.4674 10.5314 3.79891 11.0296 3.95871C11.1862 4.00843 11.3311 3.84695 11.3311 3.70295L11.9315 1.06873C11.9315 1.0014 11.9095 0.920331 11.8354 0.865295C11.633 0.715727 10.3984 0 7.27913 0C3.686 0 0 1.58374 0 9.19722C0 16.811 4.22 17.9455 7.77625 17.9455C10.7206 17.9455 12.5068 16.642 12.5068 16.642C12.5805 16.5999 12.5884 16.4933 12.5884 16.4444V7.9415C12.5884 7.79776 12.4759 7.68069 12.3371 7.68069H12.337ZM40.062 0.952964C40.062 0.807928 39.951 0.690863 39.8121 0.690863H36.7814C36.7483 0.690999 36.7155 0.697886 36.685 0.711132C36.6545 0.724377 36.6268 0.743721 36.6035 0.768059C36.5802 0.792398 36.5617 0.821254 36.5492 0.85298C36.5366 0.884706 36.5302 0.918681 36.5304 0.952964L36.5311 7.02065H31.8071V0.953094C31.8071 0.808058 31.6956 0.690993 31.557 0.690993H28.5263C28.4595 0.69137 28.3956 0.719192 28.3487 0.768341C28.3017 0.817491 28.2755 0.883946 28.2759 0.953094V17.3826C28.2759 17.5276 28.3884 17.6454 28.5263 17.6454H31.5569C31.6955 17.6454 31.8069 17.5276 31.8069 17.3826V10.3551H36.531L36.5228 17.3824C36.5228 17.5275 36.6353 17.6453 36.7738 17.6453H39.8117C39.9505 17.6453 40.0615 17.5275 40.0617 17.3824V0.953094L40.062 0.952964ZM18.0462 3.14961C18.0462 2.01911 17.1712 1.10538 16.0919 1.10538C15.0135 1.10538 14.1379 2.01898 14.1379 3.14961C14.1379 4.27882 15.0135 5.19501 16.0919 5.19501C17.1712 5.19501 18.0462 4.27882 18.0462 3.14961ZM17.8057 13.9253V6.34144C17.8057 6.19744 17.6936 6.07973 17.555 6.07973H14.5339C14.3953 6.07973 14.2714 6.22787 14.2714 6.37187V17.2373C14.2714 17.5566 14.4634 17.6515 14.712 17.6515H17.4339C17.7326 17.6515 17.8057 17.4996 17.8057 17.2321V13.9253ZM51.6452 6.07986H48.6377C48.4997 6.07986 48.3875 6.19757 48.3875 6.34248V14.3984C48.3875 14.3984 47.6235 14.9776 46.539 14.9776C45.4546 14.9776 45.1669 14.4677 45.1669 13.3678V6.3426C45.1669 6.19757 45.0548 6.07973 44.9168 6.07973H41.8644C41.7266 6.07973 41.6138 6.19757 41.6138 6.3426V13.8998C41.6138 17.167 43.3716 17.9663 45.7897 17.9663C47.7735 17.9663 49.3729 16.831 49.3729 16.831C49.3729 16.831 49.4491 17.4293 49.4835 17.5003C49.518 17.5711 49.6077 17.6425 49.7048 17.6425L51.6466 17.6337C51.7844 17.6337 51.8973 17.5157 51.8973 17.3714L51.8963 6.34248C51.8963 6.19757 51.7837 6.07986 51.6452 6.07986ZM58.5746 14.9838C57.5315 14.9509 56.8239 14.4605 56.8239 14.4605V9.25744C56.8239 9.25744 57.522 8.81417 58.3784 8.73492C59.4614 8.63443 60.505 8.97332 60.505 11.6499C60.505 14.4723 60.034 15.0292 58.5746 14.9836V14.9838ZM59.7609 5.72698C58.0527 5.72698 56.8909 6.51652 56.8909 6.51652V0.952964C56.8911 0.918739 56.8848 0.884803 56.8724 0.853098C56.8599 0.821394 56.8416 0.792543 56.8183 0.768198C56.7951 0.743852 56.7675 0.724491 56.737 0.711221C56.7066 0.69795 56.6739 0.691033 56.6409 0.690863H53.6015C53.5684 0.691016 53.5357 0.697918 53.5052 0.711176C53.4747 0.724434 53.4471 0.743787 53.4238 0.768129C53.4005 0.79247 53.3821 0.821324 53.3697 0.853039C53.3572 0.884754 53.3508 0.91871 53.351 0.952964V17.3824C53.351 17.5275 53.4632 17.6453 53.6019 17.6453H55.7106C55.8056 17.6453 55.8775 17.5948 55.9306 17.5058C55.983 17.4175 56.0586 16.7483 56.0586 16.7483C56.0586 16.7483 57.3014 17.9684 59.654 17.9684C62.416 17.9684 64 16.517 64 11.4528C64 6.38858 61.4702 5.72685 59.7609 5.72685V5.72698ZM26.5286 6.05137H24.2553L24.2518 2.93996C24.2518 2.82224 24.1933 2.76332 24.0618 2.76332H20.9638C20.8433 2.76332 20.7786 2.81823 20.7786 2.93814V6.15354C20.7786 6.15354 19.2261 6.54177 19.1211 6.57311C19.0688 6.58885 19.0228 6.62178 18.99 6.66695C18.9573 6.71212 18.9396 6.76707 18.9396 6.82355V8.84409C18.9396 8.98938 19.0516 9.10658 19.1903 9.10658H20.7786V13.9674C20.7786 17.5777 23.2231 17.9324 24.8727 17.9324C25.6265 17.9324 26.5281 17.6816 26.677 17.6247C26.767 17.5904 26.8193 17.4939 26.8193 17.389L26.8218 15.1664C26.8218 15.0215 26.7036 14.9041 26.5705 14.9041C26.438 14.9041 26.0993 14.9599 25.7502 14.9599C24.6336 14.9599 24.2553 14.422 24.2553 13.7258L24.2551 9.10671H26.5286C26.5617 9.10657 26.5945 9.09966 26.6251 9.08638C26.6556 9.0731 26.6833 9.05371 26.7066 9.02931C26.7299 9.00491 26.7483 8.976 26.7608 8.94421C26.7733 8.91243 26.7796 8.8784 26.7794 8.84409V6.31334C26.7794 6.1683 26.6672 6.0515 26.5286 6.0515V6.05137Z" fill="#DEE7F0"/>
</svg>
