<svg width="51" height="51" viewBox="0 0 51 51" fill="none" xmlns="http://www.w3.org/2000/svg">
<path d="M42.5 38.25H38.25V19.6562L25.5 27.625L12.75 19.6562V38.25H8.5V12.75H11.05L25.5 21.7812L39.95 12.75H42.5V38.25ZM42.5 8.5H8.5C6.14125 8.5 4.25 10.3913 4.25 12.75V38.25C4.25 39.3772 4.69777 40.4582 5.4948 41.2552C6.29183 42.0522 7.37283 42.5 8.5 42.5H42.5C43.6272 42.5 44.7082 42.0522 45.5052 41.2552C46.3022 40.4582 46.75 39.3772 46.75 38.25V12.75C46.75 11.6228 46.3022 10.5418 45.5052 9.7448C44.7082 8.94777 43.6272 8.5 42.5 8.5Z" fill="#DEE7F0"/>
</svg>
